<?xml version="1.0" encoding="utf-8"?>
<!-- Generator: Adobe Illustrator 14.0.0, SVG Export Plug-In . SVG Version: 6.00 Build 43363)  -->
<!DOCTYPE svg PUBLIC "-//W3C//DTD SVG 1.1//EN" "http://www.w3.org/Graphics/SVG/1.1/DTD/svg11.dtd">
<svg version="1.1" id="Calque_1" xmlns="http://www.w3.org/2000/svg" xmlns:xlink="http://www.w3.org/1999/xlink" x="0px" y="0px"
	 width="841.891px" height="595.279px" viewBox="0 0 841.891 595.279" enable-background="new 0 0 841.891 595.279"
	 xml:space="preserve">
<g id="XMLID_1_">
	<g>
		<path fill="#CC3333" d="M686.695,252.13l-26.08-11.25c6.44,20.38,13.85,40.31,9.21,65.97l-30.68-6.14
			c18.33,30.68,10.52,74.91,10.229,98.189l-30.689-16.89l-8.181,41.43l-28.64-6.14l-10.229,32.729l-30.681-24.54l22.5,8.181
			l10.23-38.87l21.47,8.189l7.16-38.869l31.72,8.199c4.43-29.51-2.38-57.09-15.35-83.88l35.29-9.72
			c-10.931-50.59-41.24-59.01-73.641-62.9c-10.88,35.6-7.26,65.62,3.07,93.07c-95.63,65.46-89.24,136.29-94.61,173.37
			c-5.109,35.29-5.17,103.81-29.659,113.02v-34.77l-6.141-8.19l-6.13,14.32l-12.28-18.41l-13.29,24.53l-13.3-24.54l-12.28,18.41
			l-6.14-14.32l-6.14,8.18v34.78c-24.48-9.21-24.54-77.74-29.66-113.02c-5.37-37.07,1.03-107.91-94.6-173.37
			c10.32-27.44,13.95-57.47,3.07-93.07c-32.41,3.87-62.72,12.3-73.65,62.9l35.29,9.72c-12.96,26.79-19.79,54.37-15.35,83.88
			l31.71-8.189l7.16,38.869l21.48-8.189l10.23,38.87l22.48-8.2l-30.68,24.55l-10.23-32.729l-28.64,6.14l-8.18-41.43l-30.68,16.88
			c-0.29-23.271-8.1-67.5,10.23-98.181l-30.69,6.141c-4.63-25.66,2.77-45.59,9.21-65.97l-26.08,11.25
			c0.52-29.15,34.81-66.02,71.61-68.02c23.51-1.27,65.96-29.26,62.9-60.35c-2.28-23.1-20.29-49.55-50.12-57.78
			c51.13,42.45,11.25,78.25-6.14,85.41c-5.12-13.3-20.39-80.32,0-151.38c47.05,26.59,104.33,75.69,108.42,171.85l67.5,45.01
			l4.09,108.419l-124.78-69.55l-8.19,8.18l20.45,4.09l51.15,45.01l18.41-6.14l32.73,57.27l4.1,139.1l-24.55,18.42l37.85,18.421
			l37.84-18.421l-24.54-18.42l4.091-139.1l32.729-57.27l18.42,6.14l51.14-45.01l20.45-4.09l-8.18-8.18l-124.79,69.55l4.09-108.419
			l67.51-45.01c4.091-96.14,61.36-145.24,108.41-171.83c20.4,71.07,5.12,138.08,0,151.38c-17.39-7.16-57.279-42.96-6.14-85.41
			c-29.83,8.23-47.84,34.68-50.12,57.79c-3.07,31.07,39.39,59.07,62.9,60.34C651.885,186.11,686.185,222.99,686.695,252.13z"/>
		<path fill="#3300CC" d="M643.235,272.07c-16.521,5.07-28.8,6.94-51.15,16.37c0.101-15.59-1.1-32.47-2.04-49.1
			C611.585,242.4,630.905,250.04,643.235,272.07z"/>
		<path fill="#3300CC" d="M592.085,292.52c22.61,14.9,32.32,39.14,34.78,65.46c-14.33-5.26-28.64-10.82-42.96-12.28
			C589.785,331.76,591.635,312.99,592.085,292.52z"/>
		<path fill="#3300CC" d="M587.995,386.63l-27.609-7.16c8.409-10.57,15.22-21.14,21.47-31.71
			C585.615,358.48,587.975,371.02,587.995,386.63z"/>
		<path fill="#3300CC" d="M559.355,380.49c-0.46,12.721-1.04,25.181-2.04,36.82c-9.13-2.16-18.101-4.42-24.55-8.18
			C542.345,399.94,550.845,390.21,559.355,380.49z"/>
		<path fill="#3300CC" d="M530.715,411.159c-0.699,8.44-0.319,16.141-4.079,26.601l-18.421-12.271
			C516.895,420.42,524.215,415.699,530.715,411.159z"/>
		<path fill="#3300CC" d="M334.355,425.49l-18.42,12.271c-3.77-10.46-3.38-18.16-4.08-26.601
			C318.355,415.699,325.665,420.42,334.355,425.49z"/>
		<path fill="#3300CC" d="M309.795,409.13c-6.44,3.76-15.42,6.02-24.54,8.18c-1-11.64-1.59-24.1-2.05-36.82
			C291.715,390.21,300.215,399.94,309.795,409.13z"/>
		<path fill="#3300CC" d="M282.175,379.47l-27.62,7.16c0.03-15.61,2.39-28.15,6.14-38.87
			C266.955,358.33,273.755,368.9,282.175,379.47z"/>
		<path fill="#3300CC" d="M250.465,292.52c0.45,20.47,2.31,39.24,8.19,53.18c-14.33,1.46-28.64,7.021-42.97,12.28
			C218.145,331.659,227.865,307.42,250.465,292.52z"/>
		<path fill="#3300CC" d="M252.515,239.34c-0.95,16.63-2.14,33.51-2.05,49.1c-22.35-9.43-34.62-11.3-51.15-16.37
			C211.655,250.04,230.965,242.4,252.515,239.34z"/>
	</g>
	<g>
	</g>
</g>
</svg>
